<svg width="198" height="30" viewBox="0 0 198 30" fill="none" xmlns="http://www.w3.org/2000/svg">
<path d="M12.7577 29.7208C10.3075 29.7208 8.11639 29.2732 6.18447 28.3779C4.27612 27.4826 2.76829 26.2339 1.66097 24.6319C0.553658 23.0062 0 21.1215 0 18.9775C0 16.8807 0.530098 15.043 1.59029 13.4645C2.65049 11.8624 4.09942 10.6137 5.9371 9.71846C7.79833 8.82318 9.89516 8.37555 12.2276 8.37555C14.6543 8.37555 16.7157 8.90564 18.4121 9.96584C20.1319 11.0025 21.4513 12.475 22.3701 14.3833C23.3125 16.2917 23.7837 18.5416 23.7837 21.1332H5.83108V16.7864H19.7196L17.3519 18.306C17.2576 17.2694 16.9985 16.3977 16.5744 15.6909C16.1503 14.9605 15.5849 14.4069 14.8781 14.0299C14.1948 13.653 13.3702 13.4645 12.4043 13.4645C11.3441 13.4645 10.437 13.6765 9.68312 14.1006C8.9292 14.5247 8.34021 15.1137 7.91613 15.8676C7.49205 16.598 7.28001 17.4579 7.28001 18.4474C7.28001 19.7196 7.56273 20.8034 8.12817 21.6987C8.71716 22.5704 9.56532 23.2418 10.6726 23.713C11.8035 24.1842 13.1818 24.4198 14.8074 24.4198C16.2917 24.4198 17.7642 24.2314 19.2249 23.8544C20.7092 23.4539 22.0521 22.9002 23.2536 22.1934V26.7876C21.8636 27.73 20.2733 28.4604 18.4827 28.9787C16.7158 29.4734 14.8074 29.7208 12.7577 29.7208Z" fill="#17051F"/>
<path d="M25.8138 8.97632H33.0585L34.3661 17.0338V29.1554H27.1567V15.9383L25.8138 8.97632ZM41.7874 8.37555C43.7194 8.37555 45.3685 8.76429 46.735 9.54176C48.1015 10.3192 49.1381 11.4148 49.8449 12.8284C50.5753 14.242 50.9405 15.9147 50.9405 17.8466V29.1554H43.7311V18.9068C43.7311 17.399 43.3424 16.2446 42.5649 15.4435C41.811 14.6425 40.7155 14.242 39.2783 14.242C38.2888 14.242 37.4171 14.454 36.6632 14.8781C35.9328 15.3022 35.3674 15.9029 34.9669 16.6804C34.5663 17.4579 34.3661 18.3767 34.3661 19.4369L32.1397 18.2707C32.4224 16.1268 33.0232 14.3244 33.942 12.8637C34.8608 11.3794 35.9917 10.2603 37.3346 9.50642C38.6775 8.7525 40.1618 8.37555 41.7874 8.37555Z" fill="#17051F"/>
<path d="M54.0172 29.1554V24.1371L67.9411 13.1818L73.0301 14.1359H54.1233V8.97632H75.7512V13.9946L61.8627 24.9146L57.5512 23.9604H75.8219V29.1554H54.0172Z" fill="#17051F"/>
<path d="M90.758 29.7208C88.1664 29.7208 85.9046 29.285 83.9727 28.4132C82.0408 27.518 80.533 26.2693 79.4492 24.6672C78.3655 23.0416 77.8236 21.1804 77.8236 19.0835C77.8236 16.9396 78.3655 15.0666 79.4492 13.4645C80.533 11.8624 82.0408 10.6137 83.9727 9.71846C85.9046 8.82318 88.1664 8.37555 90.758 8.37555C93.326 8.37555 95.576 8.82318 97.5079 9.71846C99.4634 10.6137 100.983 11.8624 102.067 13.4645C103.15 15.0666 103.692 16.9396 103.692 19.0835C103.692 21.1804 103.15 23.0416 102.067 24.6672C100.983 26.2693 99.4634 27.518 97.5079 28.4132C95.576 29.285 93.326 29.7208 90.758 29.7208ZM90.758 24.3845C91.936 24.3845 92.9373 24.1725 93.7619 23.7484C94.61 23.3243 95.2579 22.7117 95.7056 21.9107C96.1532 21.1097 96.377 20.1673 96.377 19.0835C96.377 17.9526 96.1532 16.9985 95.7056 16.221C95.2579 15.42 94.61 14.8074 93.7619 14.3833C92.9373 13.9592 91.936 13.7472 90.758 13.7472C89.58 13.7472 88.5669 13.9592 87.7188 14.3833C86.8706 14.8074 86.2227 15.42 85.7751 16.221C85.3274 16.9985 85.1036 17.9409 85.1036 19.0482C85.1036 20.1555 85.3274 21.1097 85.7751 21.9107C86.2227 22.7117 86.8706 23.3243 87.7188 23.7484C88.5669 24.1725 89.58 24.3845 90.758 24.3845Z" fill="#17051F"/>
<path d="M106.731 1.94369H113.976V29.1554H106.731V1.94369Z" fill="#17051F"/>
<path d="M117.948 8.65826L121.588 9.36506L125.192 8.65826V29.1554H117.948V8.65826ZM121.552 6.99729C120.304 6.99729 119.29 6.69101 118.513 6.07845C117.736 5.44234 117.347 4.5824 117.347 3.49865C117.347 2.43845 117.736 1.59029 118.513 0.954176C119.29 0.318059 120.304 0 121.552 0C122.848 0 123.873 0.318059 124.627 0.954176C125.404 1.59029 125.793 2.43845 125.793 3.49865C125.793 4.5824 125.404 5.44234 124.627 6.07845C123.873 6.69101 122.848 6.99729 121.552 6.99729Z" fill="#17051F"/>
<path d="M128.21 8.97632H135.454L136.762 17.0338V29.1554H129.553V15.9383L128.21 8.97632ZM143.724 8.37555C145.585 8.37555 147.164 8.76429 148.459 9.54176C149.755 10.3192 150.745 11.4148 151.428 12.8284C152.111 14.242 152.453 15.9147 152.453 17.8466V29.1554H145.243V18.9068C145.243 17.399 144.902 16.2446 144.219 15.4435C143.535 14.6425 142.546 14.242 141.25 14.242C140.331 14.242 139.53 14.454 138.847 14.8781C138.187 15.3022 137.669 15.9029 137.292 16.6804C136.939 17.4579 136.762 18.3767 136.762 19.4369L134.535 18.2707C134.818 16.1268 135.395 14.3244 136.267 12.8637C137.139 11.3794 138.211 10.2603 139.483 9.50642C140.779 8.7525 142.192 8.37555 143.724 8.37555ZM159.379 8.37555C161.241 8.37555 162.819 8.76429 164.115 9.54176C165.434 10.3192 166.436 11.4148 167.119 12.8284C167.802 14.242 168.144 15.9147 168.144 17.8466V29.1554H160.934V18.9068C160.934 17.399 160.593 16.2446 159.91 15.4435C159.226 14.6425 158.237 14.242 156.941 14.242C156.022 14.242 155.221 14.454 154.538 14.8781C153.878 15.3022 153.36 15.9029 152.983 16.6804C152.63 17.4579 152.453 18.3767 152.453 19.4369L150.226 18.2707C150.509 16.1268 151.075 14.3244 151.923 12.8637C152.794 11.3794 153.878 10.2603 155.174 9.50642C156.47 8.7525 157.872 8.37555 159.379 8.37555Z" fill="#17051F"/>
<path d="M190.09 29.1554L189.171 21.8754L190.125 19.0835L189.171 16.2917L190.09 8.97632H197.582L196.31 19.0482L197.582 29.1554H190.09ZM191.786 19.0835C191.456 21.2039 190.797 23.0651 189.807 24.6672C188.841 26.2693 187.604 27.518 186.097 28.4132C184.612 29.285 182.916 29.7208 181.008 29.7208C179.029 29.7208 177.285 29.285 175.777 28.4132C174.293 27.518 173.127 26.2693 172.279 24.6672C171.431 23.0416 171.006 21.1804 171.006 19.0835C171.006 16.9396 171.431 15.0666 172.279 13.4645C173.127 11.8624 174.293 10.6137 175.777 9.71846C177.285 8.82318 179.029 8.37555 181.008 8.37555C182.916 8.37555 184.612 8.82318 186.097 9.71846C187.604 10.5902 188.853 11.8271 189.843 13.4291C190.832 15.0077 191.48 16.8925 191.786 19.0835ZM178.322 19.0835C178.322 20.073 178.522 20.9565 178.923 21.734C179.347 22.5115 179.924 23.124 180.654 23.5717C181.385 23.9958 182.221 24.2078 183.163 24.2078C184.153 24.2078 185.084 23.9958 185.955 23.5717C186.827 23.124 187.593 22.5115 188.252 21.734C188.912 20.9565 189.407 20.073 189.737 19.0835C189.407 18.0704 188.912 17.1752 188.252 16.3977C187.593 15.6202 186.827 15.0077 185.955 14.56C185.084 14.1124 184.153 13.8886 183.163 13.8886C182.221 13.8886 181.385 14.1124 180.654 14.56C179.924 15.0077 179.347 15.6202 178.923 16.3977C178.522 17.1752 178.322 18.0704 178.322 19.0835Z" fill="#17051F"/>
</svg>
