<svg width="150" height="30" viewBox="0 0 150 30" fill="none" xmlns="http://www.w3.org/2000/svg">
<path d="M0 29.5833V0.416666H6.20905C7.65116 0.416666 8.95973 0.777778 10.1348 1.5C11.3098 2.22222 12.2445 3.19445 12.9389 4.41667C13.6599 5.63889 14.0204 7 14.0204 8.5V13.5C14.0204 15 13.6599 16.3611 12.9389 17.5833C12.2445 18.8056 11.3098 19.7778 10.1348 20.5C8.95973 21.2222 7.65116 21.5833 6.20905 21.5833H5.9687V29.5833H0ZM5.9687 16.1667H6.08888C6.43605 16.1667 6.75652 16.125 7.05028 16.0417C7.34404 15.9583 7.57104 15.7222 7.73127 15.3333C7.91821 14.9444 8.01168 14.2917 8.01168 13.375V8.66667C8.01168 7.72222 7.91821 7.05556 7.73127 6.66667C7.57104 6.27778 7.34404 6.04167 7.05028 5.95833C6.75652 5.875 6.43605 5.83333 6.08888 5.83333H5.9687V16.1667Z" fill="#A45EE5"/>
<path d="M22.658 30C21.3762 30 20.2011 29.6806 19.1329 29.0417C18.0647 28.375 17.2101 27.5 16.5692 26.4167C15.9549 25.3056 15.6478 24.0694 15.6478 22.7083V7.29167C15.6478 5.93056 15.9549 4.70833 16.5692 3.625C17.2101 2.51389 18.0647 1.63889 19.1329 1C20.2011 0.333334 21.3762 0 22.658 0C23.9399 0 25.115 0.333334 26.1832 1C27.2514 1.63889 28.0926 2.51389 28.7069 3.625C29.3478 4.70833 29.6683 5.93056 29.6683 7.29167V22.7083C29.6683 24.0694 29.3478 25.3056 28.7069 26.4167C28.0926 27.5 27.2514 28.375 26.1832 29.0417C25.115 29.6806 23.9399 30 22.658 30ZM22.658 24.5C22.9518 24.5 23.1922 24.4028 23.3791 24.2083C23.566 23.9861 23.6595 23.7361 23.6595 23.4583V6.5C23.6595 6.19445 23.566 5.94445 23.3791 5.75C23.1922 5.52778 22.9518 5.41667 22.658 5.41667C22.3643 5.41667 22.1106 5.52778 21.8969 5.75C21.71 5.94445 21.6165 6.19445 21.6165 6.5V23.4583C21.6165 23.7361 21.71 23.9861 21.8969 24.2083C22.1106 24.4028 22.3643 24.5 22.658 24.5Z" fill="#A45EE5"/>
<path d="M38.345 30C37.0631 30 35.8881 29.6806 34.8198 29.0417C33.7516 28.375 32.897 27.5 32.2561 26.4167C31.6419 25.3056 31.3348 24.0694 31.3348 22.7083V19.375H37.3035V22.9167C37.3035 23.1944 37.3969 23.4583 37.5839 23.7083C37.7975 23.9306 38.0512 24.0417 38.345 24.0417C38.6387 24.0417 38.8924 23.9306 39.1061 23.7083C39.3197 23.4583 39.4266 23.1944 39.4266 22.9167C39.4266 22.6667 39.3999 22.4583 39.3464 22.2917C39.293 22.0972 39.1729 21.8472 38.9859 21.5417L34.1789 13.375C33.8317 12.7639 33.4312 12.125 32.9772 11.4583C32.5232 10.7639 32.1359 10.0833 31.8155 9.41667C31.495 8.72222 31.3348 8.06945 31.3348 7.45833V7.29167C31.3348 5.93056 31.6419 4.70833 32.2561 3.625C32.897 2.51389 33.7516 1.63889 34.8198 1C35.8881 0.333334 37.0631 0 38.345 0C39.6536 0 40.8286 0.333334 41.8701 1C42.9383 1.63889 43.7796 2.51389 44.3938 3.625C45.0347 4.70833 45.3552 5.93056 45.3552 7.29167V10.25H39.4266V7.04167C39.4266 6.73611 39.3197 6.47222 39.1061 6.25C38.8924 6.02778 38.6387 5.91667 38.345 5.91667C38.0779 5.91667 37.8376 6.02778 37.6239 6.25C37.4103 6.47222 37.3035 6.73611 37.3035 7.04167C37.3035 7.23611 37.3302 7.40278 37.3836 7.54167C37.4637 7.65278 37.5705 7.83333 37.704 8.08333L42.6713 16.2917C43.2855 17.3194 43.8864 18.3472 44.4739 19.375C45.0614 20.375 45.3552 21.4306 45.3552 22.5417V22.7083C45.3552 24.0694 45.0347 25.3056 44.3938 26.4167C43.7796 27.5 42.9383 28.375 41.8701 29.0417C40.8286 29.6806 39.6536 30 38.345 30Z" fill="#A45EE5"/>
<path d="M50.3578 29.5833V5.83333H46.5523V0.416666H60.1721V5.83333H56.3666V29.5833H50.3578Z" fill="#A45EE5"/>
<path d="M61.8089 29.5833V0.416666H73.0252V5.83333H67.7776V11.875H71.2627V18.125H67.7776V24.2083H73.0252V29.5833H61.8089Z" fill="#A45EE5"/>
<path d="M74.6401 29.5833V0.416666H80.769C82.2111 0.416666 83.5331 0.791667 84.7348 1.54167C85.9366 2.26389 86.8846 3.25 87.579 4.5C88.3 5.72222 88.6605 7.09722 88.6605 8.625V13.5C88.6605 14.2222 88.487 15.1667 88.1398 16.3333C87.7926 17.4722 87.1383 18.5 86.1769 19.4167V20.0417L88.6605 29.5833H82.6518L80.9693 21.5417H80.6088V29.5833H74.6401ZM80.6088 16.1667H80.9293C81.41 16.1667 81.8106 16.0278 82.131 15.75C82.4782 15.4444 82.6518 14.6944 82.6518 13.5V8.5C82.6518 7.33333 82.4782 6.59722 82.131 6.29167C81.8106 5.98611 81.41 5.83333 80.9293 5.83333H80.6088V16.1667Z" fill="#A45EE5"/>
<path d="M90.2879 29.5833V0.416666H96.497C97.9391 0.416666 99.2477 0.777778 100.423 1.5C101.598 2.22222 102.532 3.19445 103.227 4.41667C103.948 5.63889 104.308 7 104.308 8.5V13.5C104.308 15 103.948 16.3611 103.227 17.5833C102.532 18.8056 101.598 19.7778 100.423 20.5C99.2477 21.2222 97.9391 21.5833 96.497 21.5833H96.2566V29.5833H90.2879ZM96.2566 16.1667H96.3768C96.724 16.1667 97.0444 16.125 97.3382 16.0417C97.632 15.9583 97.859 15.7222 98.0192 15.3333C98.2061 14.9444 98.2996 14.2917 98.2996 13.375V8.66667C98.2996 7.72222 98.2061 7.05556 98.0192 6.66667C97.859 6.27778 97.632 6.04167 97.3382 5.95833C97.0444 5.875 96.724 5.83333 96.3768 5.83333H96.2566V16.1667Z" fill="#A45EE5"/>
<path d="M104.723 29.5833L108.128 0.416666H115.339L118.743 29.5833H113.135L112.775 24.2083H110.652L110.371 29.5833H104.723ZM110.972 17.9583H112.494L112.094 8.75H111.413L110.972 17.9583Z" fill="#A45EE5"/>
<path d="M126.76 30C125.478 30 124.303 29.6806 123.235 29.0417C122.166 28.375 121.312 27.5 120.671 26.4167C120.057 25.3056 119.75 24.0694 119.75 22.7083V7.29167C119.75 5.93056 120.057 4.70833 120.671 3.625C121.312 2.51389 122.166 1.63889 123.235 1C124.303 0.333334 125.478 0 126.76 0C128.068 0 129.243 0.333334 130.285 1C131.353 1.63889 132.194 2.51389 132.809 3.625C133.45 4.70833 133.77 5.93056 133.77 7.29167V11.875H127.841V6.91667C127.841 6.61111 127.735 6.36111 127.521 6.16667C127.307 5.94444 127.054 5.83333 126.76 5.83333C126.493 5.83333 126.252 5.94444 126.039 6.16667C125.825 6.36111 125.718 6.61111 125.718 6.91667V23.125C125.718 23.4028 125.825 23.6528 126.039 23.875C126.252 24.0972 126.493 24.2083 126.76 24.2083C127.054 24.2083 127.307 24.0972 127.521 23.875C127.735 23.6528 127.841 23.4028 127.841 23.125V18.125H133.77V22.7083C133.77 24.0694 133.45 25.3056 132.809 26.4167C132.194 27.5 131.353 28.375 130.285 29.0417C129.243 29.6806 128.068 30 126.76 30Z" fill="#A45EE5"/>
<path d="M135.98 29.5833V0.416666H141.948V8.75H142.349L143.991 0.416666H150V1.25L145.994 13.0833V13.7083L150 28.75V29.5833H143.991L142.349 20.5833H141.948V29.5833H135.98Z" fill="#A45EE5"/>
</svg>
